<svg xmlns="http://www.w3.org/2000/svg" width="1280" height="800" viewBox="0 0 640 400" role="img" aria-label="microphone hand drawn scene"><rect width="640" height="400" fill="#fff"/><g stroke-linecap="round" stroke-linejoin="round"><path d="M40 366q125 -5 255 1t300 -2" fill="none" stroke="#ddd" stroke-width="2" stroke-linejoin="round" stroke-linecap="round"/><g transform="translate(304 221) scale(0.89)"><g transform="translate(0 -73) scale(1)"><ellipse cx="0" cy="0" rx="44" ry="38" fill="#fff" stroke="#202020" stroke-width="5"/><ellipse cx="-15" cy="1" rx="4" ry="7" fill="#222" stroke="#202020" stroke-width="0"/><ellipse cx="14" cy="1" rx="4" ry="7" fill="#222" stroke="#202020" stroke-width="0"/><ellipse cx="0" cy="21" rx="9" ry="12" fill="#fff" stroke="#202020" stroke-width="4"/></g><path d="M-35 -31Q0 -44 38 -28L47 53Q4 70 -48 53Z" fill="#dae9b4" stroke="#202020" stroke-width="5" stroke-linejoin="round" stroke-linecap="round"/><path d="M-47 -14l-37 45m123 -43l38 42M-23 56l-12 50m57 -47l16 48" fill="none" stroke="#202020" stroke-width="5" stroke-linejoin="round" stroke-linecap="round"/><ellipse cx="-36" cy="111" rx="20" ry="7" fill="#fff" stroke="#202020" stroke-width="4"/><ellipse cx="42" cy="111" rx="19" ry="7" fill="#fff" stroke="#202020" stroke-width="4"/></g><path d="M370 177l73 58m-8-12l35 -22m-35 22l-12 18" fill="none" stroke="#202020" stroke-width="5" stroke-linejoin="round" stroke-linecap="round"/><ellipse cx="450" cy="192" rx="14" ry="20" fill="#ddd" stroke="#202020" stroke-width="4"/><ellipse cx="139" cy="102" rx="54" ry="29" fill="#fff" stroke="#202020" stroke-width="4"/><path d="M123 99h32m-31 13h25" fill="none" stroke="#e34c41" stroke-width="4" stroke-linejoin="round" stroke-linecap="round"/><path d="M524 83l4 12 16 3 -16 4 -4 13 -5 -13 -14 -4 15 -3Z" fill="none" stroke="#ef523d" stroke-width="3" stroke-linejoin="round" stroke-linecap="round"/><path d="M55 55l16 8m493 270l18 -9" fill="none" stroke="#bbb" stroke-width="2" stroke-linejoin="round" stroke-linecap="round"/></g></svg>