<svg xmlns="http://www.w3.org/2000/svg" width="1280" height="800" viewBox="0 0 640 400" role="img" aria-label="tomato hand drawn scene"><rect width="640" height="400" fill="#fff"/><g stroke-linecap="round" stroke-linejoin="round"><path d="M40 366q125 -5 255 1t300 -2" fill="none" stroke="#ddd" stroke-width="2" stroke-linejoin="round" stroke-linecap="round"/><g transform="translate(281 233) scale(0.83)"><g transform="translate(0 -73) scale(1)"><ellipse cx="0" cy="0" rx="44" ry="38" fill="#fff" stroke="#202020" stroke-width="5"/><ellipse cx="-15" cy="1" rx="4" ry="7" fill="#222" stroke="#202020" stroke-width="0"/><ellipse cx="14" cy="1" rx="4" ry="7" fill="#222" stroke="#202020" stroke-width="0"/><ellipse cx="0" cy="21" rx="9" ry="12" fill="#fff" stroke="#202020" stroke-width="4"/></g><path d="M-35 -31Q0 -44 38 -28L47 53Q4 70 -48 53Z" fill="#e5efc6" stroke="#202020" stroke-width="5" stroke-linejoin="round" stroke-linecap="round"/><path d="M-47 -14l-37 45m123 -43l38 42M-23 56l-12 50m57 -47l16 48" fill="none" stroke="#202020" stroke-width="5" stroke-linejoin="round" stroke-linecap="round"/><ellipse cx="-36" cy="111" rx="20" ry="7" fill="#fff" stroke="#202020" stroke-width="4"/><ellipse cx="42" cy="111" rx="19" ry="7" fill="#fff" stroke="#202020" stroke-width="4"/></g><g transform="translate(100 121)"><ellipse cx="0" cy="0" rx="25" ry="22" fill="#e64c3f" stroke="#202020" stroke-width="4"/><path d="M-10 -19l10 -12 8 12m-17 1l18 2" fill="none" stroke="#3c8d4b" stroke-width="4" stroke-linejoin="round" stroke-linecap="round"/></g><g transform="translate(485 152)"><ellipse cx="0" cy="0" rx="25" ry="22" fill="#e64c3f" stroke="#202020" stroke-width="4"/><path d="M-10 -19l10 -12 8 12m-17 1l18 2" fill="none" stroke="#3c8d4b" stroke-width="4" stroke-linejoin="round" stroke-linecap="round"/></g><g transform="translate(527 292)"><ellipse cx="0" cy="0" rx="25" ry="22" fill="#e64c3f" stroke="#202020" stroke-width="4"/><path d="M-10 -19l10 -12 8 12m-17 1l18 2" fill="none" stroke="#3c8d4b" stroke-width="4" stroke-linejoin="round" stroke-linecap="round"/></g><path d="M152 204l44 -20m230 0l32 -30" fill="none" stroke="#ea5844" stroke-width="4" stroke-linejoin="round" stroke-linecap="round"/><path d="M55 55l16 8m493 270l18 -9" fill="none" stroke="#bbb" stroke-width="2" stroke-linejoin="round" stroke-linecap="round"/></g></svg>